<?xml version="1.0" encoding="UTF-8"?>
<svg xmlns="http://www.w3.org/2000/svg" xmlns:xlink="http://www.w3.org/1999/xlink" width="80px" height="60px" viewBox="0 0 79 60" version="1.1">
<defs>
<clipPath id="clip1">
  <path d="M 32.125 20.382812 L 33.179688 20.382812 L 33.179688 39.585938 L 32.125 39.585938 Z M 32.125 20.382812 "/>
</clipPath>
<clipPath id="clip2">
  <path d="M 35.285156 20.707031 L 69.035156 20.707031 L 69.035156 27.609375 L 35.285156 27.609375 Z M 35.285156 20.707031 "/>
</clipPath>
<clipPath id="clip3">
  <path d="M 35.25 30 L 52.667969 30 L 52.667969 39.292969 L 35.25 39.292969 Z M 35.25 30 "/>
</clipPath>
<clipPath id="clip4">
  <path d="M 9.894531 20.433594 L 30.238281 20.433594 L 30.238281 39.535156 L 9.894531 39.535156 Z M 9.894531 20.433594 "/>
</clipPath>
</defs>
<g id="surface1">
<rect x="0" y="0" width="79" height="60" style="fill:rgb(67.843137%,84.705882%,90.196078%);fill-opacity:1;stroke:none;"/>
<g clip-path="url(#clip1)" clip-rule="nonzero">
<path style=" stroke:none;fill-rule:nonzero;fill:rgb(100%,100%,100%);fill-opacity:1;" d="M 32.742188 20.382812 C 32.964844 20.382812 33.148438 20.652344 33.148438 20.984375 L 33.148438 38.988281 C 33.148438 39.316406 32.964844 39.585938 32.742188 39.585938 C 32.523438 39.585938 32.34375 39.316406 32.34375 38.988281 L 32.34375 20.984375 C 32.34375 20.652344 32.523438 20.382812 32.742188 20.382812 Z M 32.742188 20.382812 "/>
</g>
<g clip-path="url(#clip2)" clip-rule="nonzero">
<path style=" stroke:none;fill-rule:nonzero;fill:rgb(100%,100%,100%);fill-opacity:1;" d="M 35.667969 27.46875 L 38.753906 20.8125 L 40.171875 20.8125 L 43.347656 27.46875 L 41.945312 27.46875 L 41.421875 26.347656 L 37.582031 26.347656 L 37.074219 27.46875 Z M 38.09375 25.238281 L 40.898438 25.238281 L 39.476562 22.214844 Z M 44.199219 27.46875 L 44.199219 20.8125 L 45.542969 20.8125 L 45.542969 27.46875 Z M 47.238281 27.46875 L 47.238281 20.8125 L 49.648438 20.8125 C 50.351562 20.8125 50.964844 20.890625 51.480469 21.042969 C 52 21.199219 52.429688 21.414062 52.773438 21.703125 C 53.109375 21.984375 53.363281 22.332031 53.53125 22.742188 C 53.699219 23.148438 53.78125 23.601562 53.78125 24.113281 C 53.78125 24.59375 53.699219 25.039062 53.535156 25.453125 C 53.367188 25.863281 53.117188 26.21875 52.777344 26.515625 C 52.4375 26.8125 52.007812 27.046875 51.488281 27.21875 C 50.972656 27.386719 50.363281 27.472656 49.660156 27.472656 Z M 48.574219 26.300781 L 49.976562 26.300781 C 50.375 26.300781 50.722656 26.246094 51.023438 26.144531 C 51.324219 26.042969 51.574219 25.894531 51.773438 25.703125 C 51.976562 25.515625 52.125 25.285156 52.226562 25.015625 C 52.328125 24.746094 52.375 24.445312 52.375 24.113281 C 52.375 23.785156 52.328125 23.492188 52.226562 23.230469 C 52.125 22.964844 51.976562 22.746094 51.773438 22.558594 C 51.574219 22.378906 51.324219 22.238281 51.023438 22.136719 C 50.722656 22.039062 50.375 21.988281 49.976562 21.988281 L 48.574219 21.988281 Z M 55.117188 27.46875 L 55.117188 20.8125 L 60.714844 20.8125 L 60.714844 21.996094 L 56.453125 21.996094 L 56.453125 23.324219 L 60.226562 23.324219 L 60.226562 24.4375 L 56.453125 24.4375 L 56.453125 26.289062 L 60.804688 26.289062 L 60.804688 27.46875 Z M 62.273438 27.46875 L 62.273438 20.8125 L 63.605469 20.8125 L 67.703125 22.984375 L 67.703125 20.8125 L 69.035156 20.8125 L 69.035156 27.46875 L 67.703125 27.46875 L 67.703125 24.417969 L 63.605469 22.257812 L 63.605469 27.46875 Z M 62.273438 27.46875 "/>
</g>
<g clip-path="url(#clip3)" clip-rule="nonzero">
<path style=" stroke:none;fill-rule:nonzero;fill:rgb(100%,100%,100%);fill-opacity:1;" d="M 35.765625 39.15625 L 35.25 38.003906 C 35.441406 37.886719 35.609375 37.757812 35.746094 37.628906 C 35.886719 37.496094 36 37.355469 36.089844 37.195312 C 36.179688 37.039062 36.246094 36.863281 36.289062 36.671875 C 36.332031 36.476562 36.351562 36.253906 36.351562 36.007812 L 36.351562 30.246094 L 37.683594 30.246094 L 37.683594 35.765625 C 37.683594 36.0625 37.671875 36.328125 37.644531 36.570312 C 37.621094 36.816406 37.582031 37.039062 37.523438 37.238281 C 37.464844 37.445312 37.386719 37.628906 37.289062 37.796875 C 37.195312 37.972656 37.074219 38.132812 36.933594 38.285156 C 36.792969 38.4375 36.625 38.585938 36.433594 38.726562 C 36.242188 38.867188 36.019531 39.011719 35.765625 39.15625 Z M 39.386719 36.902344 L 39.386719 30.246094 L 44.984375 30.246094 L 44.984375 31.429688 L 40.71875 31.429688 L 40.71875 32.761719 L 44.496094 32.761719 L 44.496094 33.871094 L 40.71875 33.871094 L 40.71875 35.722656 L 45.070312 35.722656 L 45.070312 36.902344 Z M 46.550781 36.902344 L 46.550781 30.246094 L 52.144531 30.246094 L 52.144531 31.429688 L 47.882812 31.429688 L 47.882812 32.761719 L 51.660156 32.761719 L 51.660156 33.871094 L 47.882812 33.871094 L 47.882812 35.722656 L 52.234375 35.722656 L 52.234375 36.902344 Z M 46.550781 36.902344 "/>
</g>
<g clip-path="url(#clip4)" clip-rule="nonzero">
<path style=" stroke:none;fill-rule:nonzero;fill:rgb(100%,100%,100%);fill-opacity:1;" d="M 12.707031 39.539062 C 11.828125 39.539062 11 39.140625 10.46875 38.394531 C 9.84375 37.578125 9.730469 36.5 10.121094 35.542969 L 15.75 22.160156 C 16.140625 21.222656 16.972656 20.59375 17.964844 20.453125 C 18.957031 20.335938 19.925781 20.710938 20.546875 21.503906 L 29.613281 32.972656 C 30.257812 33.792969 30.421875 34.867188 30.027344 35.824219 C 29.636719 36.804688 28.804688 37.457031 27.765625 37.597656 L 13.074219 39.515625 C 12.957031 39.539062 12.820312 39.539062 12.707031 39.539062 Z M 18.355469 21.386719 C 18.265625 21.386719 18.171875 21.386719 18.101562 21.410156 C 17.433594 21.503906 16.878906 21.925781 16.601562 22.554688 L 10.976562 35.917969 C 10.699219 36.570312 10.789062 37.273438 11.207031 37.832031 C 11.621094 38.394531 12.289062 38.675781 12.957031 38.582031 L 27.652344 36.664062 C 28.34375 36.570312 28.921875 36.125 29.175781 35.472656 C 29.425781 34.820312 29.335938 34.09375 28.898438 33.558594 L 19.832031 22.089844 C 19.464844 21.644531 18.910156 21.386719 18.355469 21.386719 Z M 18.355469 21.386719 "/>
</g>
</g>
</svg>
