<svg xmlns="http://www.w3.org/2000/svg" version="1.1" xmlns:xlink="http://www.w3.org/1999/xlink" xmlns:svgjs="http://svgjs.dev/svgjs"  viewBox="0 0 100 100"><rect width="100" height="100" fill="#add8e6"></rect><g transform="matrix(0.75,0,0,0.75,249.090909090909,509.25820005730645)"><svg viewBox="0 0 396 127" data-background-color="#add8e6" preserveAspectRatio="xMidYMid meet"  xmlns="http://www.w3.org/2000/svg" xmlns:xlink="http://www.w3.org/1999/xlink"><g id="tight-bounds" transform="matrix(1,0,0,1,0.2400000000000091,0.09689774877188029)"><svg viewBox="0 0 395.52 126.80620450245625" height="126.80620450245625" width="395.52"><g><svg viewBox="0 0 626.9371464269327 200.99999999999997" height="126.80620450245625" width="395.52"><g><rect width="8.518010902034407" height="200.99999999999997" x="237.97854000528523" y="0" fill="#ffffff" opacity="1" stroke-width="0" stroke="transparent" fill-opacity="1" class="rect-o-0" data-fill-palette-color="primary" rx="1%" id="o-0" data-palette-color="#ffffff"></rect></g><g transform="matrix(1,0,0,1,268.79500876604845,0.4999999999999858)"><svg viewBox="0 0 358.1421376608842 200" height="200" width="358.1421376608842"><g><svg viewBox="0 0 358.1421376608842 200" height="200" width="358.1421376608842"><g><svg viewBox="0 0 358.1421376608842 200" height="200" width="358.1421376608842"><g transform="matrix(1,0,0,1,0,0)"><svg width="358.1421376608842" viewBox="-1.9299999475479126 -38.15999984741211 196.19000244140625 105.19999694824219" height="200" data-palette-color="#ffffff"><svg></svg><svg></svg><g class="undefined-text-0" data-fill-palette-color="primary" id="text-0"><path xmlns="http://www.w3.org/2000/svg" d="M0.51 0l17.92-38.16h8.21l18.45 38.16h-8.13l-3.05-6.42h-22.29l-2.95 6.42zM14.58-12.79h16.28l-8.25-17.34zM50.05 0v-38.16h7.79v38.16zM67.7 0v-38.16h13.99c4.087 0 7.633 0.44 10.64 1.32 3.013 0.88 5.51 2.137 7.49 3.77 1.973 1.633 3.447 3.62 4.42 5.96 0.967 2.333 1.45 4.957 1.45 7.87v0c0 2.767-0.48 5.327-1.44 7.68-0.96 2.353-2.427 4.387-4.4 6.1-1.967 1.72-4.457 3.063-7.47 4.03-3.007 0.967-6.553 1.45-10.64 1.45v0zM75.44-6.69h8.15c2.313 0 4.34-0.297 6.08-0.89 1.747-0.593 3.2-1.437 4.36-2.53 1.167-1.087 2.043-2.403 2.63-3.95 0.58-1.547 0.87-3.273 0.87-5.18v0c0-1.873-0.29-3.56-0.87-5.06-0.587-1.507-1.463-2.787-2.63-3.84-1.16-1.047-2.613-1.857-4.36-2.43-1.74-0.567-3.767-0.85-6.08-0.85v0h-8.15zM113.45 0v-38.16h32.5v6.79h-24.76v7.62h21.93v6.37h-21.93v10.62h25.27v6.76zM155 0v-38.16h7.74l23.78 12.45v-12.45h7.74v38.16h-7.74v-17.5l-23.78-12.38v29.88z" fill="#ffffff" fill-rule="nonzero" stroke="none" stroke-width="1" stroke-linecap="butt" stroke-linejoin="miter" stroke-miterlimit="10" stroke-dasharray="" stroke-dashoffset="0" font-family="none" font-weight="none" font-size="none" text-anchor="none" style="mix-blend-mode: normal" data-fill-palette-color="primary" opacity="1"></path><path xmlns="http://www.w3.org/2000/svg" d="M1.07 67.04l-3-6.62c1.127-0.68 2.09-1.397 2.89-2.15 0.807-0.747 1.47-1.57 1.99-2.47 0.527-0.907 0.91-1.917 1.15-3.03 0.247-1.113 0.37-2.38 0.37-3.8v0-33.03h7.74v31.64c0 1.693-0.073 3.237-0.22 4.63-0.147 1.393-0.387 2.67-0.72 3.83-0.333 1.167-0.783 2.237-1.35 3.21-0.56 0.98-1.25 1.907-2.07 2.78-0.82 0.88-1.79 1.727-2.91 2.54-1.113 0.813-2.403 1.637-3.87 2.47zM22.09 54.1v-38.16h32.5v6.79h-24.76v7.62h21.93v6.37h-21.93v10.62h25.27v6.76zM63.7 54.1v-38.16h32.49v6.79h-24.75v7.62h21.92v6.37h-21.92v10.62h25.26v6.76z" fill="#ffffff" fill-rule="nonzero" stroke="none" stroke-width="1" stroke-linecap="butt" stroke-linejoin="miter" stroke-miterlimit="10" stroke-dasharray="" stroke-dashoffset="0" font-family="none" font-weight="none" font-size="none" text-anchor="none" style="mix-blend-mode: normal" data-fill-palette-color="primary" opacity="1"></path></g></svg></g></svg></g></svg></g></svg></g><g transform="matrix(1,0,0,1,0,0.4999999999999858)"><svg viewBox="0 0 215.6800821465564 200" height="200" width="215.6800821465564"><g><svg xmlns="http://www.w3.org/2000/svg" xmlns:xlink="http://www.w3.org/1999/xlink" version="1.1" x="0" y="0" viewBox="6.114772319793701 8.410201072692871 88.2021484375 81.789794921875" style="enable-background:new 0 0 100 100;" xml:space="preserve" height="200" width="215.6800821465564" class="icon-icon-0" data-fill-palette-color="accent" id="icon-0"><path d="M18.3 90.2c-3.8 0-7.4-1.7-9.7-4.9-2.7-3.5-3.2-8.1-1.5-12.2l24.4-57.3c1.7-4 5.3-6.7 9.6-7.3C45.4 8 49.6 9.6 52.3 13l39.3 49.1c2.8 3.5 3.5 8.1 1.8 12.2-1.7 4.2-5.3 7-9.8 7.6l-63.7 8.2C19.4 90.2 18.8 90.2 18.3 90.2zM42.8 12.5c-0.4 0-0.8 0-1.1 0.1-2.9 0.4-5.3 2.2-6.5 4.9L10.8 74.7c-1.2 2.8-0.8 5.8 1 8.2 1.8 2.4 4.7 3.6 7.6 3.2l63.7-8.2c3-0.4 5.5-2.3 6.6-5.1 1.1-2.8 0.7-5.9-1.2-8.2L49.2 15.5C47.6 13.6 45.2 12.5 42.8 12.5z" fill="#ffffff" data-fill-palette-color="accent"></path></svg></g></svg></g></svg></g><defs></defs></svg><rect width="395.52" height="126.80620450245625" fill="none" stroke="none" visibility="hidden"></rect></g></svg></g></svg>